<?xml version="1.0" encoding="utf-8"?>
<svg version="1.1" id="Layer_1" xmlns="http://www.w3.org/2000/svg" xmlns:xlink="http://www.w3.org/1999/xlink" x="0px" y="0px"
	 viewBox="0 0 512 350" style="enable-background:new 0 0 512 350;" xml:space="preserve">
<style type="text/css">
	.st0{fill:#E2E2E2;}
	.st1{fill:url(#SVGID_1_);}
	.st2{fill:url(#SVGID_00000148626866168613081190000002563577112156284339_);}
	.st3{fill:url(#SVGID_00000080916346911567695650000009954332360481238199_);}
	.st4{fill:url(#SVGID_00000139988570245438809220000008439822366766046871_);}
	.st5{fill:url(#SVGID_00000039128804133551497960000001249883019146180271_);}
	.st6{fill:#B9B9B9;}
</style>
<path class="st0" d="M503.3,139.9L375.7,12.4c-5.2-5.2-12.4-8.2-19.8-8.2H152.5c-5.2,0-10.2,2.1-13.8,5.7L69.9,78.7L8.7,139.9
	c-7.4,7.4-7.4,19.4,0,26.9l127.4,127.4c5.3,5.3,12.5,8.3,20,8.3h71.2c3.7,0,7.2,1.2,10.1,3.4l50.2,38.8c3.6,2.8,8.9,0.2,8.9-4.4
	v-29.7c0-4.5,3.6-8.1,8.1-8.1h52.8c6.5,0,12.7-2.6,17.3-7.2l65-65l63.5-63.5C510.7,159.3,510.7,147.3,503.3,139.9z"/>
<linearGradient id="SVGID_1_" gradientUnits="userSpaceOnUse" x1="49.6639" y1="126.2314" x2="309.3826" y2="339.8489">
	<stop  offset="0" style="stop-color:#00C3D8"/>
	<stop  offset="1" style="stop-color:#5B00C4"/>
</linearGradient>
<path class="st1" d="M90,87.5l-54.5,54.5c-6.6,6.6-6.6,17.3,0,24l113.7,113.7c4.7,4.7,11.2,7.4,17.9,7.4H223L90,87.5z"/>
<linearGradient id="SVGID_00000064317524270037218360000001690347527746452888_" gradientUnits="userSpaceOnUse" x1="189.2563" y1="16.5067" x2="52.2907" y2="204.143">
	<stop  offset="0" style="stop-color:#00C3D8"/>
	<stop  offset="1" style="stop-color:#5B00C4"/>
</linearGradient>
<path style="fill:url(#SVGID_00000064317524270037218360000001690347527746452888_);" d="M90,87.5l61.4-61.4
	c3.3-3.3,7.7-5.1,12.3-5.1H211c5.2,0,8.3,5.7,5.5,10.1l-81.2,124.4L90,87.5z"/>
<linearGradient id="SVGID_00000126308574445919665370000002752189136811290526_" gradientUnits="userSpaceOnUse" x1="344.6047" y1="39.3454" x2="203.093" y2="238.2889">
	<stop  offset="0" style="stop-color:#A140FF"/>
	<stop  offset="0.2126" style="stop-color:#9939F9"/>
	<stop  offset="0.5355" style="stop-color:#8426E7"/>
	<stop  offset="0.9269" style="stop-color:#6207CA"/>
	<stop  offset="1" style="stop-color:#5B00C4"/>
</linearGradient>
<path style="fill:url(#SVGID_00000126308574445919665370000002752189136811290526_);" d="M223,287.1L355.5,21h-39.5
	c-8.3,0-16,4.1-20.8,10.9L171.6,210L223,287.1z"/>
<linearGradient id="SVGID_00000075858854903662694700000012485769026900000178_" gradientUnits="userSpaceOnUse" x1="451.7289" y1="186.278" x2="294.366" y2="8.6991">
	<stop  offset="0" style="stop-color:#FD69FA"/>
	<stop  offset="1" style="stop-color:#5B00C4"/>
</linearGradient>
<path style="fill:url(#SVGID_00000075858854903662694700000012485769026900000178_);" d="M355.5,21l121.1,121.1
	c6.6,6.6,6.6,17.3,0,24l-56.7,56.7L326.7,78.9L355.5,21z"/>
<linearGradient id="SVGID_00000036228663174068896550000000999268889843357323_" gradientUnits="userSpaceOnUse" x1="328.9195" y1="282.2871" x2="472.8143" y2="89.1011">
	<stop  offset="0" style="stop-color:#FD69FA"/>
	<stop  offset="1" style="stop-color:#5B00C4"/>
</linearGradient>
<path style="fill:url(#SVGID_00000036228663174068896550000000999268889843357323_);" d="M301.2,287.1h47.1c4.6,0,9.1-1.8,12.3-5.1
	l59.3-59.3l-43.3-67L295.7,277C292.9,281.3,296,287.1,301.2,287.1z"/>
<polygon class="st6" points="223,287.1 337.9,96.2 326.7,78.9 "/>
<polygon class="st6" points="205.3,48.3 147.1,173.2 135.3,155.5 "/>
</svg>
